<svg xmlns="http://www.w3.org/2000/svg" version="1.1" xmlns:xlink="http://www.w3.org/1999/xlink" xmlns:svgjs="http://svgjs.com/svgjs" width="1000" height="1000"><rect width="1000" height="1000" rx="500" ry="500" fill="#f5f5f5"></rect><g transform="matrix(4.285714285714286,0,0,4.285714285714286,200.00102778843473,199.99975558689664)"><svg xmlns="http://www.w3.org/2000/svg" version="1.1" xmlns:xlink="http://www.w3.org/1999/xlink" xmlns:svgjs="http://svgjs.com/svgjs" width="140" height="140"><svg width="140" height="140" viewBox="0 0 107.671 94.318" version="1.1" id="svg53" sodipodi:docname="favicon.svg" inkscape:version="1.1.1 (c3084ef, 2021-09-22)" xmlns:inkscape="http://www.inkscape.org/namespaces/inkscape" xmlns:sodipodi="http://sodipodi.sourceforge.net/DTD/sodipodi-0.dtd" xmlns="http://www.w3.org/2000/svg" xmlns:svg="http://www.w3.org/2000/svg">
  <defs id="defs57"></defs>
  <sodipodi:namedview id="namedview55" pagecolor="#ffffff" bordercolor="#666666" borderopacity="1.0" inkscape:pageshadow="2" inkscape:pageopacity="0.0" inkscape:pagecheckerboard="0" showgrid="false" inkscape:zoom="5.1" inkscape:cx="69.901961" inkscape:cy="70" inkscape:window-width="1312" inkscape:window-height="940" inkscape:window-x="0" inkscape:window-y="25" inkscape:window-maximized="0" inkscape:current-layer="svgGroup"></sodipodi:namedview>
  <g id="svgGroup" stroke-linecap="round" fill-rule="evenodd">
    <path d="M 13.694314,40.341 V 72.727 H 3.0763142 V 0 H 13.552314 v 27.06 h 0.675 q 1.917,-4.404 5.859,-6.996 a 14.669,14.669 0 0 1 4.385,-1.903 q 1.936,-0.506 4.217,-0.641 a 28.84,28.84 0 0 1 1.696,-0.048 23.055,23.055 0 0 1 5.107,0.541 18.035,18.035 0 0 1 4.712,1.767 15.632,15.632 0 0 1 6.236,6.31 19.027,19.027 0 0 1 0.298,0.561 19.857,19.857 0 0 1 1.67,4.774 q 0.656,2.986 0.656,6.608 v 34.694 h -10.618 V 39.311 a 18.809,18.809 0 0 0 -0.332,-3.65 q -0.437,-2.204 -1.445,-3.912 a 10.158,10.158 0 0 0 -1.312,-1.76 10.125,10.125 0 0 0 -5.464,-3.012 15.073,15.073 0 0 0 -3.13,-0.308 15.167,15.167 0 0 0 -3.969,0.502 12.873,12.873 0 0 0 -2.76,1.096 11.407,11.407 0 0 0 -4.652,4.67 13.211,13.211 0 0 0 -1.364,3.854 q -0.318,1.629 -0.323,3.491 a 22.195,22.195 0 0 0 0,0.059 z" id="0" vector-effect="non-scaling-stroke"></path>
    <path fill="#cc0000" d="m 56.795686,81.96 9.127,-3.764 a 17.594,17.594 0 0 0 0.964,1.405 q 0.526,0.695 1.169,1.425 a 30.783,30.783 0 0 0 0.441,0.49 q 1.502,1.635 4.017,2.824 a 19.089,19.089 0 0 0 0.387,0.177 12.789,12.789 0 0 0 2.531,0.805 q 2.045,0.438 4.66,0.438 a 20.509,20.509 0 0 0 4.396,-0.447 14.4,14.4 0 0 0 5.582,-2.483 q 3.942,-2.929 3.942,-9.321 V 62.784 h -0.675 q -0.734,1.332 -1.957,2.894 a 36.011,36.011 0 0 1 -0.795,0.977 q -1.74,2.068 -4.735,3.6 a 21.852,21.852 0 0 1 -0.183,0.093 13.207,13.207 0 0 1 -2.85,1.012 q -1.434,0.342 -3.125,0.471 a 28.244,28.244 0 0 1 -2.157,0.08 23.612,23.612 0 0 1 -7.661,-1.216 21.483,21.483 0 0 1 -3.969,-1.821 20.416,20.416 0 0 1 -6.96,-6.845 25.605,25.605 0 0 1 -1.208,-2.139 26.379,26.379 0 0 1 -2.227,-6.522 q -0.622,-2.984 -0.744,-6.428 a 48.137,48.137 0 0 1 -0.03,-1.699 42.776,42.776 0 0 1 0.528,-6.898 q 0.633,-3.871 2.025,-7.105 a 25.713,25.713 0 0 1 0.413,-0.911 q 2.965,-6.215 8.15,-9.535 a 21.146,21.146 0 0 1 10.938,-3.307 25.498,25.498 0 0 1 0.816,-0.013 25.042,25.042 0 0 1 3.26,0.199 q 1.672,0.22 3.063,0.683 a 11.78,11.78 0 0 1 1.88,0.804 18.763,18.763 0 0 1 2.473,1.582 q 1.327,1.012 2.277,2.176 a 11.536,11.536 0 0 1 0.133,0.166 44.918,44.918 0 0 1 1.206,1.603 q 0.541,0.756 0.972,1.439 a 20.682,20.682 0 0 1 0.538,0.9 h 0.782 v -8.842 h 10.403994 v 55.753 a 24.825,24.825 0 0 1 -0.478,5.013 q -0.664,3.218 -2.246,5.726 a 15.108,15.108 0 0 1 -0.543,0.802 19.044,19.044 0 0 1 -8.053994,6.36 23.078,23.078 0 0 1 -0.77,0.316 31.385,31.385 0 0 1 -7.495,1.862 40.094,40.094 0 0 1 -5.023,0.304 q -5.534,0 -9.742,-1.236 a 23.367,23.367 0 0 1 -1.426,-0.468 25.74,25.74 0 0 1 -3.939,-1.806 18.865,18.865 0 0 1 -3.678,-2.704 20.361,20.361 0 0 1 -2.975,-3.52 17.321,17.321 0 0 1 -1.429,-2.624 z m 23.083,-18.856 a 16.246,16.246 0 0 0 3.677,-0.397 12.098,12.098 0 0 0 4.082,-1.752 12.646,12.646 0 0 0 3.94,-4.337 16.271,16.271 0 0 0 0.889,-1.842 20.86,20.86 0 0 0 1.213,-4.283 q 0.439,-2.482 0.439,-5.394 a 31.489,31.489 0 0 0 -0.359,-4.871 23.077,23.077 0 0 0 -1.275,-4.823 16.346,16.346 0 0 0 -1.996,-3.708 13.292,13.292 0 0 0 -2.798,-2.844 q -3.16,-2.362 -7.812,-2.362 a 15.368,15.368 0 0 0 -3.697,0.424 11.423,11.423 0 0 0 -4.294,2.045 q -3.196,2.468 -4.811,6.693 a 24.389,24.389 0 0 0 -1.425,5.975 30.681,30.681 0 0 0 -0.191,3.471 q 0,5.363 1.633,9.411 1.634,4.048 4.848,6.321 a 12.14,12.14 0 0 0 4.802,1.992 16.73,16.73 0 0 0 3.135,0.281 z" id="1" vector-effect="non-scaling-stroke"></path>
  </g>
</svg></svg></g></svg>